<svg xmlns="http://www.w3.org/2000/svg" version="1.1" xmlns:xlink="http://www.w3.org/1999/xlink" xmlns:svgjs="http://svgjs.dev/svgjs" width="2000" height="2250" viewBox="0 0 2000 2250"><g transform="matrix(1,0,0,1,0.001312499999926331,0)"><svg viewBox="0 0 320 360" data-background-color="#fafafa" preserveAspectRatio="xMidYMid meet" height="2250" width="2000" xmlns="http://www.w3.org/2000/svg" xmlns:xlink="http://www.w3.org/1999/xlink"><g id="tight-bounds" transform="matrix(1,0,0,1,-0.00020999999998139174,0)"><svg viewBox="0 0 320 360" height="360" width="320"><g><svg></svg></g><g><svg viewBox="0 0 320 360" height="360" width="320"><g><path transform="translate(-17.77778,2.22222) scale(3.55556,3.55556)" d="M95 52c0-12.871-5.692-24.431-14.682-32.318-7.887-8.99-19.447-14.682-32.318-14.682-23.71 0-43 19.29-43 43 0 12.868 5.69 24.426 14.677 32.313 7.887 8.993 19.449 14.687 32.323 14.687 0.084 0 0.166-0.006 0.25-0.006 0.084 0 0.166 0.006 0.25 0.006 23.472 0 42.5-19.028 42.5-42.5 0-0.084-0.006-0.166-0.006-0.25 0-0.084 0.006-0.166 0.006-0.25zM21.828 73.371c-4.245-5.978-6.77-13.259-6.822-21.121 0.135-20.511 16.732-37.109 37.244-37.244 7.862 0.052 15.144 2.577 21.121 6.822 6.853 6.645 11.129 15.93 11.129 26.172 0 20.126-16.374 36.5-36.5 36.5-10.242 0-19.527-4.276-26.172-11.129zM6 48c0-23.159 18.841-42 42-42 9.858 0 18.926 3.422 26.1 9.13-6.463-3.888-14.024-6.13-22.1-6.13-23.71 0-43 19.29-43 43 0 8.074 2.241 15.633 6.127 22.095-5.706-7.172-9.127-16.239-9.127-26.095zM52 89c-10.08 0-19.227-4.055-25.905-10.615 6.174 4.469 13.743 7.115 21.905 7.115 20.678 0 37.5-16.822 37.5-37.5 0-8.162-2.646-15.731-7.115-21.905 6.56 6.678 10.615 15.825 10.615 25.905 0 20.402-16.598 37-37 37z" fill="#130912" fill-rule="nonzero" stroke="none" stroke-width="1" stroke-linecap="butt" stroke-linejoin="miter" stroke-miterlimit="10" stroke-dasharray="" stroke-dashoffset="0" font-family="none" font-weight="none" font-size="none" text-anchor="none" style="mix-blend-mode: normal" data-fill-palette-color="tertiary"></path></g><g transform="matrix(1,0,0,1,76.84917820100483,99)"><svg viewBox="0 0 166.30164359799033 162" height="162" width="166.30164359799033"><g><svg viewBox="0 0 192 187.03362953639427" height="162" width="166.30164359799033"><g transform="matrix(1,0,0,1,0,127.54663544298897)"><svg viewBox="0 0 192 59.48699409340529" height="59.48699409340529" width="192"><g id="textblocktransform"><svg viewBox="0 0 192 59.48699409340529" height="59.48699409340529" width="192" id="textblock"><g><svg viewBox="0 0 192 38.60037412621838" height="38.60037412621838" width="192"><g transform="matrix(1,0,0,1,0,0)"><svg width="192" viewBox="7.08 -36.89 247.95 49.85" height="38.60037412621838" data-palette-color="#130912"><path d="M7.08 0L7.08-34.69 18.53-34.69Q19.34-34.69 19.86-34.68 20.39-34.67 21.39-34.58 22.39-34.5 23.1-34.34 23.8-34.18 24.77-33.85 25.73-33.52 26.42-33.08 27.1-32.64 27.84-31.92 28.59-31.2 29.04-30.32 29.49-29.44 29.79-28.2 30.08-26.95 30.08-25.46L30.08-25.46Q30.08-23.32 29.59-21.61 29.1-19.9 28.33-18.75 27.56-17.6 26.34-16.77 25.12-15.94 23.93-15.49 22.73-15.04 21.11-14.78 19.48-14.53 18.2-14.45 16.92-14.38 15.23-14.38L15.23-14.38Q13.57-14.38 11.23-14.55L11.23-14.55 11.23 0 7.08 0ZM11.23-31.03L11.23-18.21Q13.57-18.02 15.67-18.02L15.67-18.02Q16.87-18.02 17.68-18.04 18.48-18.07 19.65-18.21 20.83-18.36 21.61-18.62 22.39-18.87 23.27-19.38 24.15-19.9 24.67-20.59 25.2-21.29 25.54-22.35 25.88-23.41 25.88-24.78L25.88-24.78Q25.88-26.2 25.51-27.28 25.15-28.37 24.45-29.03 23.75-29.69 22.99-30.11 22.22-30.54 21.13-30.73 20.04-30.91 19.23-30.97 18.41-31.03 17.29-31.03L17.29-31.03 11.23-31.03ZM39.89-24.12L40.65-22.31Q43.7-24.58 47.39-24.58L47.39-24.58Q49.92-24.58 52-23.63L52-23.63 50.78-20.43Q48.87-21.17 46.82-21.17L46.82-21.17Q43.77-21.17 41.09-19.48L41.09-19.48 41.09 0 37.08 0 37.08-24.12 39.89-24.12ZM67.16-24.58L67.16-24.58Q72.16-24.58 75.4-21.39 78.63-18.19 78.63-12.55L78.63-12.55Q78.63-6.57 75.32-3.04 72.02 0.49 66.77 0.49L66.77 0.49Q61.76 0.49 58.59-2.82 55.41-6.13 55.41-11.79L55.41-11.79Q55.41-17.63 58.65-21.11 61.88-24.58 67.16-24.58ZM66.82-21.17L66.82-21.17Q63.81-21.17 61.57-18.85 59.32-16.53 59.32-12.48L59.32-12.48Q59.32-8.45 61.52-5.69 63.72-2.93 67.21-2.93L67.21-2.93Q70.43-2.93 72.58-5.37 74.73-7.81 74.73-11.74L74.73-11.74Q74.73-13.99 74.03-15.82 73.33-17.65 72.2-18.8 71.06-19.95 69.67-20.56 68.28-21.17 66.82-21.17ZM95.84-20.9L95.84-20.9Q93.74-20.9 90.2-19.04L90.2-19.04 90.2 0 86.2 0 86.2-24.12 89.01-24.12 89.86-22.12Q94.23-24.58 97.43-24.58L97.43-24.58Q101.12-24.58 103.22-21.9L103.22-21.9Q108-24.56 111.78-24.56L111.78-24.56Q113.62-24.56 115.01-24.06 116.4-23.56 117.27-22.69 118.13-21.83 118.68-20.52 119.23-19.21 119.44-17.76 119.65-16.31 119.65-14.48L119.65-14.48 119.65 0 115.64 0 115.64-14.75Q115.64-15.19 115.62-15.56 115.59-15.94 115.5-16.61 115.4-17.29 115.2-17.81 115.01-18.33 114.63-18.95 114.25-19.56 113.71-19.96 113.18-20.36 112.35-20.63 111.52-20.9 110.49-20.9L110.49-20.9Q108.24-20.9 104.56-18.99L104.56-18.99Q104.9-17.55 104.9-14.31L104.9-14.31 104.9 0 100.9 0 100.9-14.84Q100.9-15.48 100.85-16.05 100.8-16.63 100.51-17.58 100.21-18.53 99.72-19.2 99.24-19.87 98.22-20.39 97.21-20.9 95.84-20.9ZM139.08-24.58L139.08-24.58Q140.57-24.58 141.98-24.23 143.4-23.88 144.83-22.99 146.25-22.09 147.32-20.74 148.38-19.38 149.05-17.21 149.72-15.04 149.72-12.33L149.72-12.33Q149.72-6.4 146.56-2.95 143.4 0.49 138.37 0.49L138.37 0.49Q135.49 0.49 132.53-0.81L132.53-0.81 132.53 12.96 128.53 12.96 128.53-24.12 131.31-24.12 131.97-22.58Q135.39-24.58 139.08-24.58ZM137.71-21.26L137.71-21.26Q135.05-21.26 132.53-19.92L132.53-19.92 132.53-3.83Q135.15-2.66 137.78-2.66L137.78-2.66Q138.91-2.66 139.96-2.91 141.01-3.15 142.09-3.8 143.18-4.44 143.98-5.42 144.79-6.4 145.3-8.01 145.82-9.62 145.82-11.65L145.82-11.65Q145.82-13.94 145.28-15.7 144.74-17.46 143.91-18.48 143.08-19.51 141.96-20.17 140.83-20.83 139.81-21.04 138.78-21.26 137.71-21.26ZM169.52-3.15L170.08-0.42Q166.54 0.49 164.56 0.49 162.59 0.49 161.22-0.15 159.85-0.78 159.14-1.95 158.43-3.13 158.13-4.48 157.82-5.83 157.82-7.59L157.82-7.59 157.82-20.97 154.58-20.97 154.58-24.12 157.82-24.12 157.82-31.03 161.83-31.03 161.83-24.12 169.18-24.12 169.18-20.97 161.83-20.97 161.83-7.64Q161.83-2.64 165.78-2.64L165.78-2.64Q166.49-2.64 169.52-3.15L169.52-3.15ZM174.96 0L187.29-34.69 192-34.69 204.33 0 200.13 0 196.62-10.08 182.31-10.08 178.79 0 174.96 0ZM195.35-13.72L189.46-30.64 183.55-13.72 195.35-13.72ZM219.95-24.58L219.95-24.58Q220.47-24.58 220.92-24.57 221.37-24.56 221.8-24.51 222.22-24.46 222.53-24.44 222.83-24.41 223.24-24.34 223.64-24.27 223.82-24.23 224.01-24.19 224.43-24.08 224.86-23.97 224.96-23.95 225.06-23.93 225.53-23.78 226.01-23.63 226.08-23.61L226.08-23.61 225.06-20.56Q221.78-21.46 219.29-21.46L219.29-21.46Q217.85-21.46 216.74-21.17 215.63-20.87 215.03-20.46 214.44-20.04 214.06-19.49 213.68-18.95 213.57-18.53 213.46-18.12 213.46-17.72L213.46-17.72Q213.46-16.72 214.5-15.94 215.53-15.16 217.08-14.67 218.63-14.18 220.44-13.51 222.25-12.84 223.8-12.1 225.35-11.35 226.39-10.01 227.42-8.67 227.42-6.91L227.42-6.91Q227.42-5.91 227.17-4.97 226.91-4.03 226.19-3 225.47-1.98 224.34-1.23 223.2-0.49 221.3 0 219.39 0.49 216.93 0.49L216.93 0.49Q213.19 0.49 208.72-1.34L208.72-1.34 209.85-4.37Q212.36-3.44 213.96-3.05 215.56-2.66 217.1-2.66L217.1-2.66Q223.05-2.66 223.05-6.45L223.05-6.45Q223.05-7.28 222.47-7.91 221.88-8.54 220.91-8.95 219.93-9.35 218.7-9.78 217.46-10.21 216.18-10.57 214.9-10.94 213.67-11.54 212.43-12.13 211.46-12.85 210.48-13.57 209.89-14.72 209.31-15.87 209.31-17.31L209.31-17.31Q209.31-18.19 209.59-19.1 209.87-20.02 210.64-21.03 211.41-22.05 212.56-22.81 213.7-23.58 215.62-24.08 217.54-24.58 219.95-24.58ZM245.44-21L245.44-21Q242.58-21 238.99-19.12L238.99-19.12 238.99 0 234.99 0 234.99-36.89 238.99-36.89 238.99-22.29Q243.27-24.56 247-24.56L247-24.56Q248.61-24.56 249.89-24.15 251.18-23.73 252.01-23.11 252.84-22.49 253.43-21.5 254.03-20.51 254.34-19.64 254.64-18.77 254.8-17.58 254.96-16.38 255-15.63 255.03-14.87 255.03-13.84L255.03-13.84 255.03 0 250.93 0 250.93-14.58Q250.93-21 245.44-21Z" opacity="1" transform="matrix(1,0,0,1,0,0)" fill="#130912" class="wordmark-text-0" data-fill-palette-color="primary" id="text-0"></path></svg></g></svg></g><g transform="matrix(1,0,0,1,0,47.71299604843951)"><svg viewBox="0 0 192 11.773998044965788" height="11.773998044965788" width="192"><g transform="matrix(1,0,0,1,0,0)"><svg width="192" viewBox="2.3 -37.1 767.1800000000001 47.05" height="11.773998044965788" data-palette-color="#130912"><path d="M15.7 0.25Q11.9 0.25 8.85-1.48 5.8-3.2 4.05-6.25 2.3-9.3 2.3-13.15L2.3-13.15Q2.3-17 4.05-20.05 5.8-23.1 8.85-24.8 11.9-26.5 15.7-26.5L15.7-26.5Q19.5-26.5 22.55-24.8 25.6-23.1 27.33-20.05 29.05-17 29.05-13.15L29.05-13.15Q29.05-9.3 27.33-6.25 25.6-3.2 22.55-1.48 19.5 0.25 15.7 0.25L15.7 0.25ZM15.7-2.9Q18.5-2.9 20.73-4.17 22.95-5.45 24.2-7.8 25.45-10.15 25.45-13.15L25.45-13.15Q25.45-16.15 24.2-18.5 22.95-20.85 20.73-22.13 18.5-23.4 15.7-23.4L15.7-23.4Q12.9-23.4 10.68-22.13 8.45-20.85 7.18-18.5 5.9-16.15 5.9-13.15L5.9-13.15Q5.9-10.15 7.18-7.8 8.45-5.45 10.68-4.17 12.9-2.9 15.7-2.9L15.7-2.9ZM49.85-26.5Q53.55-26.5 56.55-24.83 59.55-23.15 61.25-20.1 62.95-17.05 62.95-13.15L62.95-13.15Q62.95-9.2 61.25-6.15 59.55-3.1 56.57-1.43 53.6 0.25 49.85 0.25L49.85 0.25Q46.65 0.25 44.07-1.07 41.5-2.4 39.85-4.95L39.85-4.95 39.85 9.7 36.3 9.7 36.3-26.3 39.7-26.3 39.7-21.1Q41.3-23.7 43.92-25.1 46.55-26.5 49.85-26.5L49.85-26.5ZM49.6-2.9Q52.35-2.9 54.6-4.17 56.85-5.45 58.12-7.8 59.4-10.15 59.4-13.15L59.4-13.15Q59.4-16.15 58.12-18.48 56.85-20.8 54.6-22.1 52.35-23.4 49.6-23.4L49.6-23.4Q46.8-23.4 44.57-22.1 42.35-20.8 41.07-18.48 39.8-16.15 39.8-13.15L39.8-13.15Q39.8-10.15 41.07-7.8 42.35-5.45 44.57-4.17 46.8-2.9 49.6-2.9L49.6-2.9ZM93.15-13.15L93.09-12.05 71.09-12.05Q71.4-7.95 74.25-5.43 77.09-2.9 81.45-2.9L81.45-2.9Q83.9-2.9 85.95-3.78 88-4.65 89.5-6.35L89.5-6.35 91.5-4.05Q89.75-1.95 87.12-0.85 84.5 0.25 81.34 0.25L81.34 0.25Q77.3 0.25 74.17-1.48 71.05-3.2 69.3-6.25 67.55-9.3 67.55-13.15L67.55-13.15Q67.55-17 69.22-20.05 70.9-23.1 73.82-24.8 76.75-26.5 80.4-26.5L80.4-26.5Q84.05-26.5 86.95-24.8 89.84-23.1 91.5-20.08 93.15-17.05 93.15-13.15L93.15-13.15ZM80.4-23.45Q76.59-23.45 74.02-21.03 71.45-18.6 71.09-14.7L71.09-14.7 89.75-14.7Q89.4-18.6 86.82-21.03 84.25-23.45 80.4-23.45L80.4-23.45ZM113.79-26.5Q118.74-26.5 121.67-23.63 124.59-20.75 124.59-15.25L124.59-15.25 124.59 0 121.04 0 121.04-14.9Q121.04-19 118.99-21.15 116.94-23.3 113.14-23.3L113.14-23.3Q108.89-23.3 106.42-20.78 103.94-18.25 103.94-13.8L103.94-13.8 103.94 0 100.39 0 100.39-26.3 103.79-26.3 103.79-21.45Q105.24-23.85 107.82-25.18 110.39-26.5 113.79-26.5L113.79-26.5ZM132.29-12L132.29-15.1 145.39-15.1 145.39-12 132.29-12ZM160.39 0.25Q157.19 0.25 154.26-0.68 151.34-1.6 149.69-3L149.69-3 151.29-5.8Q152.94-4.5 155.44-3.68 157.94-2.85 160.64-2.85L160.64-2.85Q164.24-2.85 165.96-3.98 167.69-5.1 167.69-7.15L167.69-7.15Q167.69-8.6 166.74-9.43 165.79-10.25 164.34-10.68 162.89-11.1 160.49-11.5L160.49-11.5Q157.29-12.1 155.34-12.73 153.39-13.35 152.01-14.85 150.64-16.35 150.64-19L150.64-19Q150.64-22.3 153.39-24.4 156.14-26.5 161.04-26.5L161.04-26.5Q163.59-26.5 166.14-25.83 168.69-25.15 170.34-24.05L170.34-24.05 168.79-21.2Q165.54-23.45 161.04-23.45L161.04-23.45Q157.64-23.45 155.91-22.25 154.19-21.05 154.19-19.1L154.19-19.1Q154.19-17.6 155.16-16.7 156.14-15.8 157.59-15.38 159.04-14.95 161.59-14.5L161.59-14.5Q164.74-13.9 166.64-13.3 168.54-12.7 169.89-11.25 171.24-9.8 171.24-7.25L171.24-7.25Q171.24-3.8 168.36-1.78 165.49 0.25 160.39 0.25L160.39 0.25ZM188.54 0.25Q184.74 0.25 181.69-1.48 178.64-3.2 176.89-6.25 175.14-9.3 175.14-13.15L175.14-13.15Q175.14-17 176.89-20.05 178.64-23.1 181.69-24.8 184.74-26.5 188.54-26.5L188.54-26.5Q192.34-26.5 195.39-24.8 198.44-23.1 200.16-20.05 201.89-17 201.89-13.15L201.89-13.15Q201.89-9.3 200.16-6.25 198.44-3.2 195.39-1.48 192.34 0.25 188.54 0.25L188.54 0.25ZM188.54-2.9Q191.34-2.9 193.56-4.17 195.79-5.45 197.04-7.8 198.29-10.15 198.29-13.15L198.29-13.15Q198.29-16.15 197.04-18.5 195.79-20.85 193.56-22.13 191.34-23.4 188.54-23.4L188.54-23.4Q185.74-23.4 183.51-22.13 181.29-20.85 180.01-18.5 178.74-16.15 178.74-13.15L178.74-13.15Q178.74-10.15 180.01-7.8 181.29-5.45 183.51-4.17 185.74-2.9 188.54-2.9L188.54-2.9ZM229.28-26.3L232.83-26.3 232.83 0 229.43 0 229.43-4.8Q228.03-2.4 225.58-1.07 223.13 0.25 219.98 0.25L219.98 0.25Q214.83 0.25 211.86-2.63 208.88-5.5 208.88-11.05L208.88-11.05 208.88-26.3 212.43-26.3 212.43-11.4Q212.43-7.25 214.48-5.1 216.53-2.95 220.33-2.95L220.33-2.95Q224.48-2.95 226.88-5.48 229.28-8 229.28-12.5L229.28-12.5 229.28-26.3ZM246.18-21.15Q247.43-23.8 249.91-25.15 252.38-26.5 256.03-26.5L256.03-26.5 256.03-23.05 255.18-23.1Q251.03-23.1 248.68-20.55 246.33-18 246.33-13.4L246.33-13.4 246.33 0 242.78 0 242.78-26.3 246.18-26.3 246.18-21.15ZM273.08 0.25Q269.18 0.25 266.1-1.45 263.03-3.15 261.28-6.23 259.53-9.3 259.53-13.15L259.53-13.15Q259.53-17 261.28-20.05 263.03-23.1 266.1-24.8 269.18-26.5 273.08-26.5L273.08-26.5Q276.48-26.5 279.15-25.18 281.83-23.85 283.38-21.3L283.38-21.3 280.73-19.5Q279.43-21.45 277.43-22.43 275.43-23.4 273.08-23.4L273.08-23.4Q270.23-23.4 267.95-22.13 265.68-20.85 264.4-18.5 263.13-16.15 263.13-13.15L263.13-13.15Q263.13-10.1 264.4-7.78 265.68-5.45 267.95-4.17 270.23-2.9 273.08-2.9L273.08-2.9Q275.43-2.9 277.43-3.85 279.43-4.8 280.73-6.75L280.73-6.75 283.38-4.95Q281.83-2.4 279.13-1.07 276.43 0.25 273.08 0.25L273.08 0.25ZM312.83-13.15L312.78-12.05 290.78-12.05Q291.08-7.95 293.93-5.43 296.78-2.9 301.13-2.9L301.13-2.9Q303.58-2.9 305.63-3.78 307.68-4.65 309.18-6.35L309.18-6.35 311.18-4.05Q309.43-1.95 306.8-0.85 304.18 0.25 301.03 0.25L301.03 0.25Q296.98 0.25 293.85-1.48 290.73-3.2 288.98-6.25 287.23-9.3 287.23-13.15L287.23-13.15Q287.23-17 288.9-20.05 290.58-23.1 293.5-24.8 296.43-26.5 300.08-26.5L300.08-26.5Q303.73-26.5 306.63-24.8 309.53-23.1 311.18-20.08 312.83-17.05 312.83-13.15L312.83-13.15ZM300.08-23.45Q296.28-23.45 293.7-21.03 291.13-18.6 290.78-14.7L290.78-14.7 309.43-14.7Q309.08-18.6 306.5-21.03 303.93-23.45 300.08-23.45L300.08-23.45ZM360.07 0L355.87-9.35 336.37-9.35 332.17 0 328.32 0 344.32-35 347.97-35 363.97 0 360.07 0ZM337.72-12.35L354.52-12.35 346.12-31.15 337.72-12.35ZM369.77 0L369.77-35 373.47-35 373.47 0 369.77 0ZM410.76-26.5Q414.46-26.5 417.46-24.83 420.46-23.15 422.16-20.1 423.86-17.05 423.86-13.15L423.86-13.15Q423.86-9.2 422.16-6.15 420.46-3.1 417.49-1.43 414.51 0.25 410.76 0.25L410.76 0.25Q407.56 0.25 404.99-1.07 402.41-2.4 400.76-4.95L400.76-4.95 400.76 9.7 397.21 9.7 397.21-26.3 400.61-26.3 400.61-21.1Q402.21-23.7 404.84-25.1 407.46-26.5 410.76-26.5L410.76-26.5ZM410.51-2.9Q413.26-2.9 415.51-4.17 417.76-5.45 419.04-7.8 420.31-10.15 420.31-13.15L420.31-13.15Q420.31-16.15 419.04-18.48 417.76-20.8 415.51-22.1 413.26-23.4 410.51-23.4L410.51-23.4Q407.71-23.4 405.49-22.1 403.26-20.8 401.99-18.48 400.71-16.15 400.71-13.15L400.71-13.15Q400.71-10.15 401.99-7.8 403.26-5.45 405.49-4.17 407.71-2.9 410.51-2.9L410.51-2.9ZM434.51-21.15Q435.76-23.8 438.24-25.15 440.71-26.5 444.36-26.5L444.36-26.5 444.36-23.05 443.51-23.1Q439.36-23.1 437.01-20.55 434.66-18 434.66-13.4L434.66-13.4 434.66 0 431.11 0 431.11-26.3 434.51-26.3 434.51-21.15ZM461.26 0.25Q457.46 0.25 454.41-1.48 451.36-3.2 449.61-6.25 447.86-9.3 447.86-13.15L447.86-13.15Q447.86-17 449.61-20.05 451.36-23.1 454.41-24.8 457.46-26.5 461.26-26.5L461.26-26.5Q465.06-26.5 468.11-24.8 471.16-23.1 472.88-20.05 474.61-17 474.61-13.15L474.61-13.15Q474.61-9.3 472.88-6.25 471.16-3.2 468.11-1.48 465.06 0.25 461.26 0.25L461.26 0.25ZM461.26-2.9Q464.06-2.9 466.28-4.17 468.51-5.45 469.76-7.8 471.01-10.15 471.01-13.15L471.01-13.15Q471.01-16.15 469.76-18.5 468.51-20.85 466.28-22.13 464.06-23.4 461.26-23.4L461.26-23.4Q458.46-23.4 456.23-22.13 454.01-20.85 452.73-18.5 451.46-16.15 451.46-13.15L451.46-13.15Q451.46-10.15 452.73-7.8 454.01-5.45 456.23-4.17 458.46-2.9 461.26-2.9L461.26-2.9ZM514.66-26.5Q519.61-26.5 522.43-23.65 525.26-20.8 525.26-15.25L525.26-15.25 525.26 0 521.71 0 521.71-14.9Q521.71-19 519.73-21.15 517.76-23.3 514.16-23.3L514.16-23.3Q510.06-23.3 507.71-20.78 505.36-18.25 505.36-13.8L505.36-13.8 505.36 0 501.81 0 501.81-14.9Q501.81-19 499.83-21.15 497.86-23.3 494.21-23.3L494.21-23.3Q490.16-23.3 487.78-20.78 485.41-18.25 485.41-13.8L485.41-13.8 485.41 0 481.86 0 481.86-26.3 485.26-26.3 485.26-21.5Q486.66-23.9 489.16-25.2 491.66-26.5 494.91-26.5L494.91-26.5Q498.21-26.5 500.63-25.1 503.06-23.7 504.26-20.95L504.26-20.95Q505.71-23.55 508.43-25.03 511.16-26.5 514.66-26.5L514.66-26.5ZM548.45-26.5Q552.15-26.5 555.15-24.83 558.15-23.15 559.85-20.1 561.55-17.05 561.55-13.15L561.55-13.15Q561.55-9.2 559.85-6.15 558.15-3.1 555.18-1.43 552.2 0.25 548.45 0.25L548.45 0.25Q545.25 0.25 542.68-1.07 540.1-2.4 538.45-4.95L538.45-4.95 538.45 9.7 534.9 9.7 534.9-26.3 538.3-26.3 538.3-21.1Q539.9-23.7 542.53-25.1 545.15-26.5 548.45-26.5L548.45-26.5ZM548.2-2.9Q550.95-2.9 553.2-4.17 555.45-5.45 556.73-7.8 558-10.15 558-13.15L558-13.15Q558-16.15 556.73-18.48 555.45-20.8 553.2-22.1 550.95-23.4 548.2-23.4L548.2-23.4Q545.4-23.4 543.18-22.1 540.95-20.8 539.68-18.48 538.4-16.15 538.4-13.15L538.4-13.15Q538.4-10.15 539.68-7.8 540.95-5.45 543.18-4.17 545.4-2.9 548.2-2.9L548.2-2.9ZM581.4-4.15L582.65-1.6Q581.65-0.7 580.18-0.23 578.7 0.25 577.1 0.25L577.1 0.25Q573.4 0.25 571.4-1.75 569.4-3.75 569.4-7.4L569.4-7.4 569.4-23.3 564.7-23.3 564.7-26.3 569.4-26.3 569.4-32.05 572.95-32.05 572.95-26.3 580.95-26.3 580.95-23.3 572.95-23.3 572.95-7.6Q572.95-5.25 574.13-4.03 575.3-2.8 577.5-2.8L577.5-2.8Q578.6-2.8 579.63-3.15 580.65-3.5 581.4-4.15L581.4-4.15ZM589.1 0L589.1-26.3 592.65-26.3 592.65 0 589.1 0ZM590.9-32.05Q589.8-32.05 589.05-32.8 588.3-33.55 588.3-34.6L588.3-34.6Q588.3-35.6 589.05-36.35 589.8-37.1 590.9-37.1L590.9-37.1Q592-37.1 592.75-36.38 593.5-35.65 593.5-34.65L593.5-34.65Q593.5-33.55 592.75-32.8 592-32.05 590.9-32.05L590.9-32.05ZM615.94-26.5Q620.89-26.5 623.82-23.63 626.74-20.75 626.74-15.25L626.74-15.25 626.74 0 623.19 0 623.19-14.9Q623.19-19 621.14-21.15 619.09-23.3 615.29-23.3L615.29-23.3Q611.04-23.3 608.57-20.78 606.09-18.25 606.09-13.8L606.09-13.8 606.09 0 602.54 0 602.54-26.3 605.94-26.3 605.94-21.45Q607.39-23.85 609.97-25.18 612.54-26.5 615.94-26.5L615.94-26.5ZM657.44-26.3L660.84-26.3 660.84-3.2Q660.84 3.5 657.57 6.73 654.29 9.95 647.69 9.95L647.69 9.95Q644.04 9.95 640.77 8.88 637.49 7.8 635.44 5.9L635.44 5.9 637.24 3.2Q639.14 4.9 641.87 5.85 644.59 6.8 647.59 6.8L647.59 6.8Q652.59 6.8 654.94 4.48 657.29 2.15 657.29-2.75L657.29-2.75 657.29-6.1Q655.64-3.6 652.97-2.3 650.29-1 647.04-1L647.04-1Q643.34-1 640.32-2.63 637.29-4.25 635.57-7.18 633.84-10.1 633.84-13.8L633.84-13.8Q633.84-17.5 635.57-20.4 637.29-23.3 640.29-24.9 643.29-26.5 647.04-26.5L647.04-26.5Q650.39-26.5 653.09-25.15 655.79-23.8 657.44-21.25L657.44-21.25 657.44-26.3ZM647.39-4.15Q650.24-4.15 652.54-5.38 654.84-6.6 656.12-8.8 657.39-11 657.39-13.8L657.39-13.8Q657.39-16.6 656.12-18.78 654.84-20.95 652.57-22.18 650.29-23.4 647.39-23.4L647.39-23.4Q644.54-23.4 642.27-22.2 639.99-21 638.72-18.8 637.44-16.6 637.44-13.8L637.44-13.8Q637.44-11 638.72-8.8 639.99-6.6 642.27-5.38 644.54-4.15 647.39-4.15L647.39-4.15ZM696.49-4.15L697.74-1.6Q696.74-0.7 695.26-0.23 693.79 0.25 692.19 0.25L692.19 0.25Q688.49 0.25 686.49-1.75 684.49-3.75 684.49-7.4L684.49-7.4 684.49-23.3 679.79-23.3 679.79-26.3 684.49-26.3 684.49-32.05 688.04-32.05 688.04-26.3 696.04-26.3 696.04-23.3 688.04-23.3 688.04-7.6Q688.04-5.25 689.21-4.03 690.39-2.8 692.59-2.8L692.59-2.8Q693.69-2.8 694.71-3.15 695.74-3.5 696.49-4.15L696.49-4.15ZM713.98 0.25Q710.18 0.25 707.13-1.48 704.08-3.2 702.33-6.25 700.58-9.3 700.58-13.15L700.58-13.15Q700.58-17 702.33-20.05 704.08-23.1 707.13-24.8 710.18-26.5 713.98-26.5L713.98-26.5Q717.78-26.5 720.83-24.8 723.88-23.1 725.61-20.05 727.33-17 727.33-13.15L727.33-13.15Q727.33-9.3 725.61-6.25 723.88-3.2 720.83-1.48 717.78 0.25 713.98 0.25L713.98 0.25ZM713.98-2.9Q716.78-2.9 719.01-4.17 721.23-5.45 722.48-7.8 723.73-10.15 723.73-13.15L723.73-13.15Q723.73-16.15 722.48-18.5 721.23-20.85 719.01-22.13 716.78-23.4 713.98-23.4L713.98-23.4Q711.18-23.4 708.96-22.13 706.73-20.85 705.46-18.5 704.18-16.15 704.18-13.15L704.18-13.15Q704.18-10.15 705.46-7.8 706.73-5.45 708.96-4.17 711.18-2.9 713.98-2.9L713.98-2.9ZM745.33 0.25Q741.53 0.25 738.48-1.48 735.43-3.2 733.68-6.25 731.93-9.3 731.93-13.15L731.93-13.15Q731.93-17 733.68-20.05 735.43-23.1 738.48-24.8 741.53-26.5 745.33-26.5L745.33-26.5Q749.13-26.5 752.18-24.8 755.23-23.1 756.96-20.05 758.68-17 758.68-13.15L758.68-13.15Q758.68-9.3 756.96-6.25 755.23-3.2 752.18-1.48 749.13 0.25 745.33 0.25L745.33 0.25ZM745.33-2.9Q748.13-2.9 750.36-4.17 752.58-5.45 753.83-7.8 755.08-10.15 755.08-13.15L755.08-13.15Q755.08-16.15 753.83-18.5 752.58-20.85 750.36-22.13 748.13-23.4 745.33-23.4L745.33-23.4Q742.53-23.4 740.31-22.13 738.08-20.85 736.81-18.5 735.53-16.15 735.53-13.15L735.53-13.15Q735.53-10.15 736.81-7.8 738.08-5.45 740.31-4.17 742.53-2.9 745.33-2.9L745.33-2.9ZM765.93 0L765.93-37.1 769.48-37.1 769.48 0 765.93 0Z" opacity="1" transform="matrix(1,0,0,1,0,0)" fill="#130912" class="slogan-text-1" data-fill-palette-color="secondary" id="text-1"></path></svg></g></svg></g></svg></g></svg></g><g transform="matrix(1,0,0,1,41.339304200726644,0)"><svg viewBox="0 0 109.32139159854671 109.32139159854671" height="109.32139159854671" width="109.32139159854671"><g><svg></svg></g><g id="icon-0"><svg viewBox="0 0 109.32139159854671 109.32139159854671" height="109.32139159854671" width="109.32139159854671"><g><path d="M0 54.661c0-30.188 24.472-54.661 54.661-54.661 30.188 0 54.661 24.472 54.66 54.661 0 30.188-24.472 54.661-54.66 54.66-30.188 0-54.661-24.472-54.661-54.66zM54.661 105.84c28.266 0 51.18-22.914 51.179-51.179 0-28.266-22.914-51.18-51.179-51.18-28.266 0-51.18 22.914-51.18 51.18 0 28.266 22.914 51.18 51.18 51.179z" data-fill-palette-color="accent" fill="#e77917" stroke="transparent"></path></g><g transform="matrix(1,0,0,1,23.97733378615308,24.68142059563289)"><svg viewBox="0 0 61.366724026240554 59.95855040728093" height="59.95855040728093" width="61.366724026240554"><g><svg xmlns="http://www.w3.org/2000/svg" xmlns:xlink="http://www.w3.org/1999/xlink" version="1.1" x="0" y="0" viewBox="8.6 9.6 82.80000000000001 80.90000000000002" style="enable-background:new 0 0 100 100;" xml:space="preserve" height="59.95855040728093" width="61.366724026240554" class="icon-cg-0" data-fill-palette-color="accent" id="cg-0"><g fill="#e77917" data-fill-palette-color="accent"><path d="M50 60.4c5.7 0 10.4-4.7 10.4-10.4 0-2.3-0.8-4.6-2.2-6.4l15.9-15.9c1.9 1.7 4.4 2.7 6.9 2.7 5.7 0 10.4-4.7 10.4-10.4S86.7 9.6 81 9.6 70.6 14.3 70.6 20c0 1.3 0.2 2.4 0.7 3.7L54.4 40.6c-1.4-0.7-2.9-1-4.4-1-5.7 0-10.4 4.7-10.4 10.4S44.3 60.4 50 60.4z" fill="#e77917" data-fill-palette-color="accent"></path><path d="M50 30.4c5.7 0 10.4-4.7 10.4-10.4S55.7 9.6 50 9.6 39.6 14.3 39.6 20 44.3 30.4 50 30.4z" fill="#e77917" data-fill-palette-color="accent"></path><path d="M81 39.6c-5.7 0-10.4 4.7-10.4 10.4S75.3 60.4 81 60.4 91.4 55.7 91.4 50 86.7 39.6 81 39.6z" fill="#e77917" data-fill-palette-color="accent"></path><path d="M19 69.6c-5.7 0-10.4 4.7-10.4 10.4S13.3 90.4 19 90.4 29.4 85.7 29.4 80 24.7 69.6 19 69.6z" fill="#e77917" data-fill-palette-color="accent"></path><path d="M81 69.6c-4.8 0-9 3.3-10.1 8H60.1c-1.1-4.7-5.3-8-10.1-8-3 0-5.8 1.3-7.7 3.5L26.3 57.3c1.9-2 3-4.6 3-7.3 0-4.8-3.3-9-8-10.1v-9.8c4.7-1.1 8-5.3 8-10.1 0-5.7-4.7-10.4-10.4-10.4S8.6 14.3 8.6 20c0 4.8 3.3 9 8 10.1v9.8c-4.7 1.1-8 5.3-8 10.1 0 5.7 4.7 10.4 10.4 10.4 1.1 0 2.2-0.2 3.2-0.5l17.7 17.7c-0.2 0.9-0.3 1.6-0.3 2.5 0 5.7 4.7 10.4 10.4 10.4 4.8 0 9-3.3 10.1-8h10.8c1.1 4.7 5.3 8 10.1 8 5.7 0 10.4-4.7 10.4-10.4S86.7 69.6 81 69.6z" fill="#e77917" data-fill-palette-color="accent"></path></g></svg></g></svg></g></svg></g></svg></g><g></g></svg></g></svg></g></svg></g><defs></defs></svg><rect width="320" height="360" fill="none" stroke="none" visibility="hidden"></rect></g></svg></g></svg>